<svg width="700" height="200" xmlns="http://www.w3.org/2000/svg" xmlns:xlink="http://www.w3.org/1999/xlink">
 <metadata id="metadata25">image/svg+xml</metadata>
 <defs>
  <linearGradient id="linearGradient885">
   <stop stop-color="#ee2e60" id="stop881" offset="0"/>
   <stop stop-color="#ee2e60" stop-opacity="0" id="stop883" offset="1"/>
  </linearGradient>
  <radialGradient gradientUnits="userSpaceOnUse" gradientTransform="matrix(7.996403217315674,-0.34198302030563354,0.27323439717292786,6.388896942138672,-666.8469848632812,-1248.213623046875)" r="55.2" fy="215.45229" fx="88.23117" cy="215.45229" cx="88.23117" id="radialGradient889" xlink:href="#linearGradient885"/>
 </defs>
 <style type="text/css">.st0{fill:none;stroke:#EE2D60;stroke-width:0.5;stroke-miterlimit:10;}
	.st1{fill:#2C2A7A;}
	.st2{fill:#EE2E60;}</style>
 <g>
  <title>background</title>
  <rect fill="none" id="canvas_background" height="202" width="702" y="-1" x="-1"/>
 </g>
 <g>
  <title>Layer 1</title>
  <g transform="matrix(2.28246, 0, 0, 2.28246, -100.726, -102.885)" id="g18">
   <path fill="none" stroke="#ee2d60" stroke-width="0.5" stroke-miterlimit="10" id="path4" d="m156.02375,96.00709" class="st0"/>
   <path fill="#2c2a7a" id="path6" d="m198.22375,63.60709c-14.3,0 -19.7,3.5 -23.2,13.7c-0.1,0.4 0.1,0.8 0.5,0.9l10.3,2.9c0.4,0.1 0.7,-0.1 0.8,-0.5c0.4,-1.5 1.9,-5 5.6,-5c4,0 8.9,0 11,0c2.1,0 3.9,1.5 3.9,3.3c0,1.8 0,6.7 0,6.7c0,0 -9.2,0 -17.3,0c-8.7,0 -17,7 -17,17.6c0,9.9 5.5,17.5 24.2,17.5c16.8,0 22.9,-6.5 22.9,-15.4c0,-8.9 0,-19.2 0,-24.6c0.1,-5.3 -2.6,-17.1 -21.7,-17.1zm8.8,42c0,1.2 -0.7,3.4 -4.4,3.4c-3.7,0 -9.7,0 -12.2,0c-2.6,0 -5,-2.7 -5,-5.9c0,-3.2 1.6,-5.9 5.5,-5.9c3.9,0 16.2,0 16.2,0c0,0 -0.1,7.2 -0.1,8.4z" class="st1"/>
   <path fill="#2c2a7a" id="path8" d="m324.02375,120.60709c14.3,0 19.7,-3.5 23.2,-13.7c0.1,-0.4 -0.1,-0.8 -0.5,-0.9l-10.3,-2.9c-0.4,-0.1 -0.7,0.1 -0.8,0.5c-0.4,1.5 -1.9,5 -5.6,5c-4,0 -8.9,0 -11,0c-2.1,0 -3.9,-1.5 -3.9,-3.3c0,-1.8 0,-6.7 0,-6.7c0,0 9.2,0 17.3,0c8.7,0 17,-7 17,-17.6c0,-9.9 -5.5,-17.5 -24.2,-17.5c-16.8,0 -22.9,6.5 -22.9,15.4c0,8.9 0,19.2 0,24.6c-0.1,5.3 2.6,17.1 21.7,17.1zm-9.7,-41.6c0,-1.2 0.7,-3.3 4.2,-3.3c3.5,0 9.8,0 12.3,0c3.3,0 4.8,2.1 4.8,5.2c0,3.1 -0.6,5.7 -5.3,5.7c-3.7,0 -16,0 -16,0c0,0 0,-6.5 0,-7.6z" class="st1"/>
   <path fill="#2c2a7a" id="path10" d="m261.32375,95.30709c9,0 16.5,-12.7 18,-15.3c0.2,-0.3 0.5,-0.5 0.8,-0.5l0,0c0.5,0 0.9,0.4 0.9,0.9l0,39.3c0,0.6 0.5,1 1,1l11,0c0.6,0 1,-0.5 1,-1l0,-45.9l0,-0.1c0,-5.6 -4.5,-10.2 -10.2,-10.2l0,0c-5.5,0 -8.4,2.3 -11.8,6.5c-3.3,4.2 -8.8,13.3 -10.8,13.3c-1.9,0 -7.5,-9.2 -10.8,-13.3c-3.3,-4.2 -6.2,-6.5 -11.8,-6.5l0,0c-5.6,0 -10.2,4.5 -10.2,10.2l0,0.1l0,45.9c0,0.6 0.5,1 1,1l11,0c0.6,0 1,-0.5 1,-1l0,-39.3c0,-0.5 0.4,-0.9 0.9,-0.9l0,0c0.3,0 0.6,0.2 0.8,0.5c1.6,2.7 9.2,15.3 18.2,15.3z" class="st1"/>
   <g id="g16">
    <path fill="url(#radialGradient889)" id="path12" d="m100.72375,130.20709l0,0c2.8,0 5.4,-1.1 7.4,-3.1l44.9,-44.9c1.8,-1.8 2.9,-4.3 2.9,-6.9l0,-0.5c0,-2.6 -1,-5.1 -2.9,-6.9l-17.3,-17c-1.3,-1.3 -3,-2 -4.8,-2l-30.2,0l-30.2,0c-1.8,0 -3.5,0.7 -4.8,2l-17.3,17c-1.9,1.8 -2.9,4.3 -2.9,6.9l0,0.5c0,2.6 1,5.1 2.9,6.9l44.9,44.9c1.9,2 4.6,3.1 7.4,3.1z" class="st2"/>
    <path fill="#2c2a7a" id="path14" d="m69.82375,48.90709l0,0.1c2,0 3.9,0.7 5.3,2l20.3,18.3c1.1,1 2.5,1.5 4,1.5l1.2,0l1.2,0c1.5,0 2.9,-0.6 4,-1.5l20.3,-18.3c1.5,-1.3 3.4,-2 5.3,-2c0,0 0,-0.1 0,-0.1c-0.2,0 -0.4,0 -0.7,0l-30.2,0l-30,0c-0.3,0 -0.5,0 -0.7,0z" class="st1"/>
   </g>
  </g>
 </g>
</svg>